<?xml version="1.0" standalone="no"?>
<!DOCTYPE svg PUBLIC "-//W3C//DTD SVG 20010904//EN"
 "http://www.w3.org/TR/2001/REC-SVG-20010904/DTD/svg10.dtd">
<svg version="1.0" xmlns="http://www.w3.org/2000/svg"
 width="300.000000pt" height="410.000000pt" viewBox="70 0 205.000000 260.000000"
 preserveAspectRatio="xMidYMid meet">

<g transform="translate(0.000000,260.000000) scale(0.100000,-0.100000)"
fill="#125570" stroke="none">
<path d="M1529 2210 c-373 -46 -677 -305 -785 -667 -36 -119 -44 -311 -19
-434 76 -378 372 -671 746 -739 87 -16 265 -13 355 5 333 69 604 323 705 660
27 89 37 310 20 411 -52 298 -262 568 -537 690 -136 60 -342 92 -485 74z m101
-850 l0 -340 -75 0 -75 0 0 275 0 275 -140 0 -140 0 0 65 0 65 215 0 215 0 0
-340z m180 65 l0 -275 140 0 140 0 0 -65 0 -65 -215 0 -215 0 0 340 0 340 75
0 75 0 0 -275z"/>
</g>
</svg>
